<?xml version="1.0" encoding="UTF-8"?>
<svg version="1.1" xmlns="http://www.w3.org/2000/svg" width="512" height="512">
<path d="M0 0 C1.91210518 -0.01292336 1.91210518 -0.01292336 3.86283875 -0.02610779 C7.32809887 -0.04842204 10.79289837 -0.04570378 14.25820255 -0.03678632 C17.16769075 -0.03163738 20.07709532 -0.03900082 22.98657489 -0.04625839 C29.86108024 -0.06320236 36.73536336 -0.05974976 43.60986328 -0.04296875 C50.66220591 -0.02607419 57.71392831 -0.04185724 64.76620317 -0.07419163 C70.85582704 -0.1010372 76.94525964 -0.10812289 83.03493667 -0.09967655 C86.65659204 -0.09478795 90.2778753 -0.09673765 93.89948273 -0.11746407 C113.27981696 -0.21698961 129.09230037 -0.13877952 144.78027344 12.53344727 C146.17246094 13.55438477 146.17246094 13.55438477 147.59277344 14.59594727 C150.36011219 17.04701873 152.53932083 19.58819526 154.78027344 22.53344727 C154.78027344 23.19344727 154.78027344 23.85344727 154.78027344 24.53344727 C155.37279996 24.53192838 155.96532648 24.5304095 156.57580835 24.52884459 C191.71516699 24.43927886 226.85450594 24.37067406 261.99395503 24.32918595 C266.21577816 24.32418329 270.43760105 24.31900598 274.65942383 24.3137207 C275.92012575 24.31214684 275.92012575 24.31214684 277.20629641 24.31054118 C290.80447286 24.29314898 304.40258148 24.26161784 318.00071774 24.22483608 C331.9598098 24.18739365 345.91886641 24.16520444 359.87800664 24.15709329 C368.4874569 24.15161235 377.09671541 24.13431853 385.70610663 24.1017814 C391.61463873 24.08059271 397.5230721 24.07425704 403.43163941 24.07944176 C406.83760672 24.0819968 410.2432396 24.07815645 413.64914703 24.05662537 C417.35025035 24.03665844 421.05054018 24.04153363 424.75166321 24.0524292 C425.81686937 24.04077783 426.88207554 24.02912647 427.97956067 24.01712203 C439.33465856 24.10717628 448.54239092 27.66930611 456.78027344 35.53344727 C466.04540225 45.23889904 468.3872331 55.58282592 468.28820801 68.70288086 C468.29444797 69.98675375 468.30068793 71.27062664 468.30711699 72.59340477 C468.32369825 76.12755443 468.31561573 79.66126785 468.30317211 83.19541836 C468.29407756 87.01826762 468.30811306 90.84104473 468.3190918 94.66387939 C468.33683486 102.14116346 468.3330559 109.6182865 468.32144123 117.09557676 C468.31239054 123.17503901 468.31118997 129.25445628 468.3155365 135.33392334 C468.31614943 136.20072043 468.31676236 137.06751752 468.31739387 137.96058118 C468.31867283 139.72171928 468.31996969 141.48285736 468.32128423 143.24399543 C468.33267769 159.7401409 468.31959573 176.23619731 468.29808277 192.73232818 C468.28021291 206.87245933 468.28331736 221.01245911 468.30175781 235.15258789 C468.32318637 251.59158044 468.33157917 268.03049502 468.31930876 284.46949959 C468.31803462 286.22399011 468.31677714 287.97848064 468.3155365 289.73297119 C468.3149194 290.59610912 468.31430229 291.45924704 468.31366649 292.34854066 C468.31021955 298.4174178 468.31602778 304.4862453 468.32545471 310.55511475 C468.33669816 317.95577005 468.33358551 325.35625574 468.31233174 332.75689173 C468.30185274 336.5294722 468.29764523 340.30177036 468.31092834 344.07434845 C468.32513437 348.17114699 468.30811942 352.26723892 468.28820801 356.36401367 C468.29713089 357.54622686 468.30605378 358.72844006 468.31524706 359.94647789 C468.20498147 371.66866059 464.93165921 380.9946689 456.78027344 389.53344727 C445.48766966 400.3137212 433.31307633 401.1219283 418.44775391 401.04138184 C416.58993479 401.04599561 414.73211933 401.05235173 412.87431145 401.06029081 C407.78959268 401.07694167 402.70517539 401.06875703 397.62045574 401.05634594 C392.1288877 401.04728041 386.63737081 401.06127264 381.14581299 401.07226562 C370.39591307 401.09003935 359.64612496 401.08621593 348.89622068 401.07461506 C340.15848594 401.06557652 331.42078251 401.06435857 322.68304443 401.06871033 C321.43879822 401.06932326 320.194552 401.06993619 318.91260135 401.0705677 C316.38483126 401.07184662 313.85706118 401.07314347 311.32929111 401.07445806 C288.30927741 401.08553554 265.2893132 401.0740535 242.26931164 401.05308767 C221.26837565 401.03410616 200.2675367 401.03580471 179.26660156 401.05493164 C155.65529189 401.07636428 132.04402352 401.0847619 108.43270302 401.07248259 C105.91430283 401.07120841 103.39590264 401.06995092 100.87750244 401.06871033 C99.63844552 401.06809323 98.3993886 401.06747612 97.1227845 401.06684032 C88.39692689 401.0633886 79.67110374 401.06921194 70.94525146 401.07862854 C60.30936958 401.08985421 49.67360576 401.08679641 39.03773737 401.06550556 C33.61256825 401.05500292 28.18759589 401.05086009 22.76242828 401.06410217 C17.79315167 401.07604792 12.82425364 401.06942734 7.85501122 401.04819196 C6.06040897 401.04373518 4.26577452 401.04597133 2.47119308 401.05569512 C-11.51805641 401.12566191 -22.7148892 399.56169465 -33.21972656 389.53344727 C-42.77849856 379.520397 -44.82209662 368.95316642 -44.72766113 355.45288086 C-44.73227882 354.05703775 -44.73863753 352.66119953 -44.74657011 351.26537132 C-44.76316771 347.45759453 -44.75506116 343.65022209 -44.74262524 339.84244442 C-44.73353753 335.72511585 -44.74756283 331.60785455 -44.75854492 327.49053955 C-44.77629519 319.43573598 -44.77250577 311.38108182 -44.76089436 303.32627249 C-44.75184653 296.77770357 -44.75064187 290.22917641 -44.75498962 283.68060303 C-44.75560256 282.74719727 -44.75621549 281.81379151 -44.75684699 280.85210073 C-44.75812595 278.95567464 -44.7594228 277.05924855 -44.76073736 275.16282248 C-44.77213293 257.39623653 -44.75904552 239.62973324 -44.73753589 221.86316085 C-44.71966585 206.63147014 -44.72277024 191.3999014 -44.74121094 176.16821289 C-44.76263574 158.46351681 -44.77103439 140.75889311 -44.75876188 123.05418587 C-44.75748774 121.16488776 -44.75623025 119.27558964 -44.75498962 117.3862915 C-44.75437252 116.45681493 -44.75375542 115.52733836 -44.75311962 114.56969583 C-44.74967155 108.03194013 -44.75548334 101.4942305 -44.76490784 94.95648193 C-44.77614709 86.98490542 -44.77304735 79.01348638 -44.75178486 71.04192781 C-44.74130031 66.97771575 -44.73710805 62.91376587 -44.75038147 58.84955597 C-44.76236541 55.12371827 -44.75564517 51.39838396 -44.73447126 47.67259145 C-44.7279387 45.69791739 -44.74088746 43.72320795 -44.75470018 41.7485714 C-44.6496016 29.7333498 -41.596536 20.3083625 -33.21972656 11.53344727 C-23.50272981 2.25729725 -13.13442883 -0.07260583 0 0 Z " fill="#FCD353" transform="translate(44.2197265625,55.466552734375)"/>
<path d="M0 0 C35.73786964 -0.09161039 71.47571865 -0.16206656 107.2136816 -0.20426132 C111.43550472 -0.20926398 115.65732761 -0.21444129 119.87915039 -0.21972656 C121.13985232 -0.22130043 121.13985232 -0.22130043 122.42602297 -0.22290608 C136.02419942 -0.24029828 149.62230805 -0.27182943 163.2204443 -0.30861118 C177.17953637 -0.34605362 191.13859298 -0.36824283 205.0977332 -0.37635398 C213.70718346 -0.38183491 222.31644197 -0.39912873 230.92583319 -0.43166587 C236.83436529 -0.45285456 242.74279866 -0.45919022 248.65136597 -0.45400551 C252.05733328 -0.45145046 255.46296617 -0.45529082 258.8688736 -0.4768219 C262.56997692 -0.49678882 266.27026674 -0.49191364 269.97138977 -0.48101807 C271.56919902 -0.49849512 271.56919902 -0.49849512 273.19928724 -0.51632524 C284.55438512 -0.42627098 293.76211749 3.13585885 302 11 C310.25918773 19.65170358 313.49181545 28.96707796 313.3515625 40.85351562 C313.30128906 42.50383789 313.30128906 42.50383789 313.25 44.1875 C313.23195313 45.33025391 313.21390625 46.47300781 313.1953125 47.65039062 C313.14871635 50.43451047 313.08332038 53.21677889 313 56 C279.88632886 56.06868121 246.77267622 56.12153644 213.65895009 56.15319599 C209.7487075 56.15694806 205.83846504 56.16083104 201.92822266 56.16479492 C201.14977068 56.16558185 200.37131871 56.16636878 199.56927729 56.16717956 C186.96816666 56.18023001 174.36709713 56.20388187 161.76601088 56.23145839 C148.8341129 56.25952263 135.90223644 56.27617841 122.97030926 56.28226548 C114.99196275 56.28637981 107.01373241 56.29937006 99.03542167 56.3237494 C92.91547179 56.34149643 86.7956103 56.34336304 80.6756382 56.33932304 C78.16662697 56.34014861 75.65761135 56.34611904 73.14862633 56.35761642 C69.72245768 56.37254714 66.29678567 56.36895103 62.87060547 56.36076355 C61.8783707 56.36950207 60.88613592 56.3782406 59.86383343 56.38724393 C51.16992315 56.33110914 44.63566567 54.32412099 38.1796875 48.3203125 C34.49609795 44.39907201 31.25340156 40.14713571 27.98828125 35.87890625 C24.90676492 31.85175023 21.71175261 27.92357469 18.5 24 C14.20924456 18.74009586 9.95168106 13.45640458 5.75 8.125 C5.28400391 7.53589844 4.81800781 6.94679688 4.33789062 6.33984375 C1.12111003 2.24222005 1.12111003 2.24222005 0 0 Z " fill="#FEB125" transform="translate(199,80)"/>
</svg>
